<?xml version="1.0" standalone="no"?>
<!DOCTYPE svg PUBLIC "-//W3C//DTD SVG 20010904//EN"
 "http://www.w3.org/TR/2001/REC-SVG-20010904/DTD/svg10.dtd">
<svg version="1.0" xmlns="http://www.w3.org/2000/svg"
 width="860.000000pt" height="645.000000pt" viewBox="0 0 860.000000 645.000000"
 preserveAspectRatio="xMidYMid meet">

<g transform="translate(0.000000,645.000000) scale(0.100000,-0.100000)"
fill="#C6C6C6" stroke="none">
<path d="M2530 4280 c-129 -10 -423 -32 -653 -49 -314 -23 -425 -35 -448 -47
-19 -10 -38 -32 -50 -59 -19 -42 -19 -70 -17 -737 3 -681 3 -694 24 -738 32
-68 349 -472 387 -492 43 -24 58 -24 820 22 741 44 736 44 777 65 62 32 60 -2
60 855 0 461 -3 788 -9 798 -9 17 -471 346 -526 374 -50 26 -119 27 -365 8z
m361 -143 c31 -19 100 -67 155 -107 98 -73 99 -74 69 -81 -16 -4 -317 -24
-668 -45 -579 -33 -642 -35 -670 -22 -38 18 -227 166 -227 177 0 5 6 13 13 19
6 5 212 24 457 42 245 18 486 36 535 40 50 4 133 8 186 9 91 1 97 0 150 -32z
m381 -354 c17 -15 18 -50 18 -680 0 -434 -4 -671 -10 -683 -6 -11 -19 -24 -30
-30 -31 -17 -1373 -92 -1409 -79 -23 8 -33 20 -41 47 -8 25 -10 248 -8 684 3
573 5 649 19 663 13 13 122 22 655 54 762 46 781 47 806 24z"/>
<path d="M2865 3560 c-99 -7 -121 -13 -135 -41 -20 -37 -12 -46 45 -54 l55 -6
0 -286 0 -285 -199 303 c-109 167 -205 313 -213 323 -14 19 -22 19 -183 9
-165 -11 -170 -11 -192 -37 -13 -15 -23 -36 -23 -46 0 -18 14 -23 90 -33 13
-2 15 -57 18 -414 l2 -411 -33 -6 c-44 -8 -77 -33 -77 -57 0 -17 7 -19 68 -18
37 0 116 4 175 8 112 9 139 20 150 61 4 16 -5 21 -57 32 l-61 13 -3 309 c-1
170 -1 308 2 305 2 -2 88 -137 191 -299 103 -162 204 -318 226 -347 59 -79
119 -91 223 -44 l46 20 0 460 0 460 38 7 c49 9 62 20 62 55 l0 29 -62 -2 c-35
-1 -103 -4 -153 -8z"/>
<path d="M5842 3723 c-17 -6 -42 -57 -42 -83 0 -33 53 -80 90 -80 69 0 104 86
59 144 -16 20 -29 26 -57 25 -20 0 -43 -3 -50 -6z"/>
<path d="M3915 3647 c-3 -6 -4 -194 -3 -417 l3 -405 72 -3 73 -3 2 288 3 288
94 -130 c52 -71 146 -201 209 -287 l114 -158 64 0 64 0 0 420 0 420 -70 0 -70
0 0 -279 c0 -154 -3 -282 -8 -285 -4 -2 -99 124 -212 280 l-205 284 -63 0
c-41 0 -64 -4 -67 -13z"/>
<path d="M5450 3530 l0 -80 -50 0 -50 0 0 -55 0 -55 49 0 50 0 3 -213 c3 -183
5 -217 21 -240 29 -45 72 -61 167 -61 l85 -1 3 58 3 57 -44 0 c-29 0 -53 7
-68 19 -24 19 -24 22 -24 198 l0 178 68 3 67 3 0 54 0 54 -67 3 -68 3 -3 78
-3 77 -69 0 -70 0 0 -80z"/>
<path d="M4912 3453 c-74 -22 -144 -88 -173 -161 -18 -45 -23 -78 -23 -157 -1
-94 1 -105 32 -168 51 -104 142 -157 267 -157 125 0 216 53 267 157 31 64 33
73 33 173 0 88 -4 113 -24 157 -26 59 -91 125 -147 148 -57 24 -169 28 -232 8z
m188 -132 c50 -37 65 -78 65 -181 0 -77 -4 -101 -20 -129 -32 -55 -69 -76
-130 -76 -95 0 -145 59 -153 179 -10 158 55 244 173 230 22 -2 51 -13 65 -23z"/>
<path d="M6258 3457 c-135 -38 -208 -149 -208 -316 0 -147 50 -243 152 -294
182 -91 394 -5 439 178 45 179 -20 358 -152 414 -63 28 -168 36 -231 18z m152
-123 c30 -12 48 -29 68 -63 24 -40 27 -56 27 -131 -1 -67 -5 -94 -22 -126 -40
-76 -115 -102 -195 -66 -64 28 -88 80 -88 190 0 108 24 162 83 191 51 25 74
26 127 5z"/>
<path d="M6990 3452 c-28 -11 -56 -33 -77 -60 l-33 -44 0 57 0 56 -67 -3 -68
-3 -3 -318 -2 -318 71 3 72 3 -2 160 c-2 289 19 344 137 353 55 4 62 2 93 -26
l34 -30 3 -232 3 -231 72 3 72 3 3 215 c1 123 -2 236 -8 266 -12 56 -55 116
-101 140 -47 24 -146 27 -199 6z"/>
<path d="M5820 3140 l0 -320 70 0 70 0 0 320 0 320 -70 0 -70 0 0 -320z"/>
</g>
</svg>
